<svg width="290" height="75" viewBox="0 0 290 75" fill="none" xmlns="http://www.w3.org/2000/svg">
<rect width="290" height="75" rx="8" fill="#1D3356"/>
<path d="M13.25 46V28.5H17.6L21.225 36.225C21.6417 37.125 21.975 37.8667 22.225 38.45C22.4917 39.0333 22.6917 39.5167 22.825 39.9C22.975 40.2833 23.0917 40.6167 23.175 40.9C23.2583 40.6167 23.3667 40.2833 23.5 39.9C23.6333 39.5167 23.825 39.0333 24.075 38.45C24.3417 37.8667 24.6833 37.125 25.1 36.225L28.75 28.5H32.95V46H29.525V38.925C29.525 38.125 29.5333 37.4417 29.55 36.875C29.5667 36.3083 29.5917 35.7917 29.625 35.325C29.6583 34.8417 29.7083 34.35 29.775 33.85L23.95 46H22.25L16.425 33.85C16.4917 34.35 16.5417 34.8417 16.575 35.325C16.6083 35.7917 16.6333 36.3083 16.65 36.875C16.6667 37.4417 16.675 38.125 16.675 38.925V46H13.25ZM41.1174 46.325C39.934 46.325 38.8507 46.025 37.8674 45.425C36.9007 44.8083 36.1257 43.9917 35.5424 42.975C34.9757 41.9417 34.6924 40.8 34.6924 39.55C34.6924 38.6167 34.859 37.7417 35.1924 36.925C35.5257 36.0917 35.984 35.3667 36.5674 34.75C37.1507 34.1167 37.8257 33.625 38.5924 33.275C39.3757 32.9083 40.2174 32.725 41.1174 32.725C42.2507 32.725 43.1341 32.9417 43.7674 33.375C44.4007 33.7917 44.8924 34.35 45.2424 35.05V33H48.5924V46H45.3174V43.875C44.9674 44.6083 44.4674 45.2 43.8174 45.65C43.184 46.1 42.284 46.325 41.1174 46.325ZM41.6674 43.275C42.4174 43.275 43.059 43.1083 43.5924 42.775C44.1424 42.425 44.5674 41.9667 44.8674 41.4C45.1674 40.8333 45.3174 40.2167 45.3174 39.55C45.3174 38.8667 45.1674 38.2417 44.8674 37.675C44.5674 37.1083 44.1424 36.65 43.5924 36.3C43.059 35.95 42.4174 35.775 41.6674 35.775C40.9507 35.775 40.3174 35.95 39.7674 36.3C39.234 36.6333 38.8174 37.0833 38.5174 37.65C38.2174 38.2167 38.0674 38.8417 38.0674 39.525C38.0674 40.175 38.2174 40.7917 38.5174 41.375C38.8174 41.9417 39.234 42.4 39.7674 42.75C40.3174 43.1 40.9507 43.275 41.6674 43.275ZM55.0477 46.325C52.8643 46.325 51.0643 45.5667 49.6477 44.05L51.9227 41.975C52.8727 43.0417 53.8893 43.575 54.9727 43.575C55.556 43.575 55.9977 43.45 56.2977 43.2C56.6143 42.9333 56.7727 42.6083 56.7727 42.225C56.7727 41.9917 56.7143 41.7917 56.5977 41.625C56.4977 41.4583 56.2727 41.3 55.9227 41.15C55.5893 41 55.081 40.85 54.3977 40.7C53.231 40.4167 52.3643 40.0667 51.7977 39.65C51.231 39.2333 50.856 38.7667 50.6727 38.25C50.4893 37.7333 50.3977 37.2 50.3977 36.65C50.3977 35.5167 50.8227 34.575 51.6727 33.825C52.5393 33.0583 53.731 32.675 55.2477 32.675C56.2977 32.675 57.1977 32.8333 57.9477 33.15C58.6977 33.4667 59.406 34.0583 60.0727 34.925L57.6227 36.8C57.306 36.3 56.9477 35.9417 56.5477 35.725C56.1643 35.5083 55.756 35.4 55.3227 35.4C54.856 35.4 54.4643 35.4917 54.1477 35.675C53.8477 35.8583 53.6977 36.15 53.6977 36.55C53.6977 36.7667 53.7977 36.9833 53.9977 37.2C54.1977 37.4 54.681 37.6 55.4477 37.8C56.7143 38.1167 57.681 38.4917 58.3477 38.925C59.0143 39.3417 59.4727 39.8167 59.7227 40.35C59.9727 40.8833 60.0977 41.475 60.0977 42.125C60.0977 42.925 59.8727 43.6417 59.4227 44.275C58.9893 44.9083 58.3893 45.4083 57.6227 45.775C56.8727 46.1417 56.0143 46.325 55.0477 46.325ZM66.2381 46.3C65.3048 46.3 64.4631 46.0833 63.7131 45.65C62.9631 45.2167 62.3714 44.6 61.9381 43.8C61.5048 42.9833 61.2881 42.0333 61.2881 40.95V33H64.6631V40.125C64.6631 41.2417 64.8881 42.0583 65.3381 42.575C65.7881 43.0917 66.4298 43.35 67.2631 43.35C67.9798 43.35 68.6048 43.0917 69.1381 42.575C69.6881 42.0583 69.9631 41.2417 69.9631 40.125V33H73.3381V46H70.0631V44.05C69.7464 44.8 69.2798 45.3667 68.6631 45.75C68.0631 46.1167 67.2548 46.3 66.2381 46.3ZM75.3291 46V27.75H78.7041V38.25L83.5791 33H88.3791L82.2541 39.05L88.4041 46H83.9291L78.7041 39.825V46H75.3291ZM89.2695 46V27.75H92.6445V38.25L97.5195 33H102.32L96.1945 39.05L102.345 46H97.8695L92.6445 39.825V46H89.2695ZM107.499 46.325C106.316 46.325 105.233 46.025 104.249 45.425C103.283 44.8083 102.508 43.9917 101.924 42.975C101.358 41.9417 101.074 40.8 101.074 39.55C101.074 38.6167 101.241 37.7417 101.574 36.925C101.908 36.0917 102.366 35.3667 102.949 34.75C103.533 34.1167 104.208 33.625 104.974 33.275C105.758 32.9083 106.599 32.725 107.499 32.725C108.633 32.725 109.516 32.9417 110.149 33.375C110.783 33.7917 111.274 34.35 111.624 35.05V33H114.974V46H111.699V43.875C111.349 44.6083 110.849 45.2 110.199 45.65C109.566 46.1 108.666 46.325 107.499 46.325ZM108.049 43.275C108.799 43.275 109.441 43.1083 109.974 42.775C110.524 42.425 110.949 41.9667 111.249 41.4C111.549 40.8333 111.699 40.2167 111.699 39.55C111.699 38.8667 111.549 38.2417 111.249 37.675C110.949 37.1083 110.524 36.65 109.974 36.3C109.441 35.95 108.799 35.775 108.049 35.775C107.333 35.775 106.699 35.95 106.149 36.3C105.616 36.6333 105.199 37.0833 104.899 37.65C104.599 38.2167 104.449 38.8417 104.449 39.525C104.449 40.175 104.599 40.7917 104.899 41.375C105.199 41.9417 105.616 42.4 106.149 42.75C106.699 43.1 107.333 43.275 108.049 43.275ZM116.979 46V33H120.304V34.9C120.988 33.4333 122.313 32.7 124.279 32.7C125.213 32.7 126.054 32.9167 126.804 33.35C127.554 33.7833 128.146 34.4 128.579 35.2C129.013 36 129.229 36.95 129.229 38.05V46H125.854V38.875C125.854 37.7417 125.596 36.925 125.079 36.425C124.563 35.9083 123.888 35.65 123.054 35.65C122.338 35.65 121.704 35.9083 121.154 36.425C120.621 36.925 120.354 37.7417 120.354 38.875V46H116.979ZM139.47 46V31.65H134.47V28.5H147.97V31.65H142.97V46H139.47ZM151.931 46.3C150.998 46.3 150.156 46.0833 149.406 45.65C148.656 45.2167 148.065 44.6 147.631 43.8C147.198 42.9833 146.981 42.0333 146.981 40.95V33H150.356V40.125C150.356 41.2417 150.581 42.0583 151.031 42.575C151.481 43.0917 152.123 43.35 152.956 43.35C153.673 43.35 154.298 43.0917 154.831 42.575C155.381 42.0583 155.656 41.2417 155.656 40.125V33H159.031V46H155.756V44.05C155.44 44.8 154.973 45.3667 154.356 45.75C153.756 46.1167 152.948 46.3 151.931 46.3ZM167.347 51.325C166.031 51.325 164.856 51.1417 163.822 50.775C162.806 50.425 161.906 49.7917 161.122 48.875L163.222 46.4C163.839 47.1 164.481 47.575 165.147 47.825C165.814 48.075 166.556 48.2 167.372 48.2C167.972 48.2 168.531 48.05 169.047 47.75C169.564 47.45 169.972 47.025 170.272 46.475C170.589 45.9417 170.747 45.3333 170.747 44.65V44.075C170.397 44.675 169.914 45.1583 169.297 45.525C168.697 45.8917 167.872 46.075 166.822 46.075C165.639 46.075 164.564 45.775 163.597 45.175C162.647 44.575 161.897 43.775 161.347 42.775C160.797 41.7583 160.522 40.625 160.522 39.375C160.522 38.125 160.797 36.9917 161.347 35.975C161.897 34.9583 162.647 34.1583 163.597 33.575C164.564 32.975 165.639 32.675 166.822 32.675C167.906 32.675 168.747 32.8667 169.347 33.25C169.964 33.6333 170.447 34.1417 170.797 34.775V33H174.122V44.85C174.122 46.1833 173.831 47.3333 173.247 48.3C172.681 49.2667 171.889 50.0083 170.872 50.525C169.856 51.0583 168.681 51.325 167.347 51.325ZM167.372 43C168.489 43 169.356 42.65 169.972 41.95C170.589 41.25 170.897 40.3917 170.897 39.375C170.897 38.3583 170.589 37.5 169.972 36.8C169.356 36.1 168.489 35.75 167.372 35.75C166.272 35.75 165.414 36.1 164.797 36.8C164.197 37.5 163.897 38.3583 163.897 39.375C163.897 40.025 164.031 40.625 164.297 41.175C164.581 41.725 164.981 42.1667 165.497 42.5C166.014 42.8333 166.639 43 167.372 43ZM182.035 46.325C180.852 46.325 179.769 46.025 178.785 45.425C177.819 44.8083 177.044 43.9917 176.46 42.975C175.894 41.9417 175.61 40.8 175.61 39.55C175.61 38.6167 175.777 37.7417 176.11 36.925C176.444 36.0917 176.902 35.3667 177.485 34.75C178.069 34.1167 178.744 33.625 179.51 33.275C180.294 32.9083 181.135 32.725 182.035 32.725C183.169 32.725 184.052 32.9417 184.685 33.375C185.319 33.7917 185.81 34.35 186.16 35.05V33H189.51V46H186.235V43.875C185.885 44.6083 185.385 45.2 184.735 45.65C184.102 46.1 183.202 46.325 182.035 46.325ZM182.585 43.275C183.335 43.275 183.977 43.1083 184.51 42.775C185.06 42.425 185.485 41.9667 185.785 41.4C186.085 40.8333 186.235 40.2167 186.235 39.55C186.235 38.8667 186.085 38.2417 185.785 37.675C185.485 37.1083 185.06 36.65 184.51 36.3C183.977 35.95 183.335 35.775 182.585 35.775C181.869 35.775 181.235 35.95 180.685 36.3C180.152 36.6333 179.735 37.0833 179.435 37.65C179.135 38.2167 178.985 38.8417 178.985 39.525C178.985 40.175 179.135 40.7917 179.435 41.375C179.735 41.9417 180.152 42.4 180.685 42.75C181.235 43.1 181.869 43.275 182.585 43.275ZM195.966 46.325C193.782 46.325 191.982 45.5667 190.566 44.05L192.841 41.975C193.791 43.0417 194.807 43.575 195.891 43.575C196.474 43.575 196.916 43.45 197.216 43.2C197.532 42.9333 197.691 42.6083 197.691 42.225C197.691 41.9917 197.632 41.7917 197.516 41.625C197.416 41.4583 197.191 41.3 196.841 41.15C196.507 41 195.999 40.85 195.316 40.7C194.149 40.4167 193.282 40.0667 192.716 39.65C192.149 39.2333 191.774 38.7667 191.591 38.25C191.407 37.7333 191.316 37.2 191.316 36.65C191.316 35.5167 191.741 34.575 192.591 33.825C193.457 33.0583 194.649 32.675 196.166 32.675C197.216 32.675 198.116 32.8333 198.866 33.15C199.616 33.4667 200.324 34.0583 200.991 34.925L198.541 36.8C198.224 36.3 197.866 35.9417 197.466 35.725C197.082 35.5083 196.674 35.4 196.241 35.4C195.774 35.4 195.382 35.4917 195.066 35.675C194.766 35.8583 194.616 36.15 194.616 36.55C194.616 36.7667 194.716 36.9833 194.916 37.2C195.116 37.4 195.599 37.6 196.366 37.8C197.632 38.1167 198.599 38.4917 199.266 38.925C199.932 39.3417 200.391 39.8167 200.641 40.35C200.891 40.8833 201.016 41.475 201.016 42.125C201.016 42.925 200.791 43.6417 200.341 44.275C199.907 44.9083 199.307 45.4083 198.541 45.775C197.791 46.1417 196.932 46.325 195.966 46.325Z" fill="white"/>
</svg>
